<mxfile host="app.diagrams.net" modified="2023-01-31T20:29:33.609Z" agent="5.0 (Windows NT 10.0; Win64; x64) AppleWebKit/537.36 (KHTML, like Gecko) Chrome/109.0.0.0 Safari/537.36" version="20.8.3" etag="XnL3eCl9tFjT0S5AeMhQ" type="github">
  <diagram id="x-XTh97rilLOaPwNH7i1" name="Page-1">
    <mxGraphModel dx="1658" dy="747" grid="1" gridSize="10" guides="1" tooltips="1" connect="1" arrows="1" fold="1" page="1" pageScale="1" pageWidth="850" pageHeight="1100" math="0" shadow="0">
      <root>
        <mxCell id="0" />
        <mxCell id="1" parent="0" />
        <mxCell id="pPhmDV3WkAtqEdvWmY4f-2" value="Gitlab" style="whiteSpace=wrap;html=1;aspect=fixed;" vertex="1" parent="1">
          <mxGeometry x="430" y="310" width="130" height="130" as="geometry" />
        </mxCell>
        <mxCell id="pPhmDV3WkAtqEdvWmY4f-3" value="Cheaha" style="swimlane;horizontal=0;whiteSpace=wrap;html=1;" vertex="1" parent="1">
          <mxGeometry x="380" y="50" width="200" height="200" as="geometry" />
        </mxCell>
        <mxCell id="pPhmDV3WkAtqEdvWmY4f-1" value="Omics Data" style="whiteSpace=wrap;html=1;aspect=fixed;" vertex="1" parent="pPhmDV3WkAtqEdvWmY4f-3">
          <mxGeometry x="60" y="20" width="110" height="110" as="geometry" />
        </mxCell>
        <mxCell id="pPhmDV3WkAtqEdvWmY4f-4" value="i2b2" style="rounded=0;whiteSpace=wrap;html=1;" vertex="1" parent="1">
          <mxGeometry x="650" y="345" width="120" height="60" as="geometry" />
        </mxCell>
        <mxCell id="pPhmDV3WkAtqEdvWmY4f-5" value="Custom Datasets from CRI EDW Team&lt;br&gt;(DataLENS)" style="rounded=0;whiteSpace=wrap;html=1;" vertex="1" parent="1">
          <mxGeometry x="650" y="490" width="120" height="60" as="geometry" />
        </mxCell>
        <mxCell id="pPhmDV3WkAtqEdvWmY4f-6" value="Documentation System&lt;br&gt;(Box)" style="rounded=0;whiteSpace=wrap;html=1;" vertex="1" parent="1">
          <mxGeometry x="435" y="530" width="120" height="60" as="geometry" />
        </mxCell>
      </root>
    </mxGraphModel>
  </diagram>
</mxfile>
